<mxfile host="app.diagrams.net" modified="2021-11-10T08:24:34.053Z" agent="5.0 (Windows NT 10.0; WOW64) AppleWebKit/537.36 (KHTML, like Gecko) Chrome/95.0.4638.69 Safari/537.36" etag="rTpQfE2_zigFh-aY57EJ" version="15.7.1" type="github">
  <diagram id="C5RBs43oDa-KdzZeNtuy" name="Page-1">
    <mxGraphModel dx="868" dy="450" grid="1" gridSize="10" guides="1" tooltips="1" connect="1" arrows="1" fold="1" page="1" pageScale="1" pageWidth="827" pageHeight="1169" math="0" shadow="0">
      <root>
        <object label="" id="WIyWlLk6GJQsqaUBKTNV-0">
          <mxCell />
        </object>
        <mxCell id="WIyWlLk6GJQsqaUBKTNV-1" parent="WIyWlLk6GJQsqaUBKTNV-0" />
        <mxCell id="9sKHqzHj7tndozo6LKp4-14" style="edgeStyle=orthogonalEdgeStyle;curved=1;rounded=0;orthogonalLoop=1;jettySize=auto;html=1;exitX=0.5;exitY=0;exitDx=0;exitDy=0;entryX=0.75;entryY=0;entryDx=0;entryDy=0;fontSize=13;" edge="1" parent="WIyWlLk6GJQsqaUBKTNV-1" source="9sKHqzHj7tndozo6LKp4-0" target="9sKHqzHj7tndozo6LKp4-2">
          <mxGeometry relative="1" as="geometry">
            <Array as="points">
              <mxPoint x="430" y="110" />
              <mxPoint x="350" y="110" />
              <mxPoint x="350" y="100" />
              <mxPoint x="180" y="100" />
              <mxPoint x="180" y="130" />
              <mxPoint x="120" y="130" />
              <mxPoint x="120" y="155" />
            </Array>
          </mxGeometry>
        </mxCell>
        <mxCell id="9sKHqzHj7tndozo6LKp4-18" style="edgeStyle=orthogonalEdgeStyle;curved=1;rounded=0;orthogonalLoop=1;jettySize=auto;html=1;exitX=0;exitY=1;exitDx=0;exitDy=0;fontSize=13;" edge="1" parent="WIyWlLk6GJQsqaUBKTNV-1" source="9sKHqzHj7tndozo6LKp4-0">
          <mxGeometry relative="1" as="geometry">
            <mxPoint x="90" y="210" as="targetPoint" />
          </mxGeometry>
        </mxCell>
        <mxCell id="9sKHqzHj7tndozo6LKp4-25" style="edgeStyle=orthogonalEdgeStyle;curved=1;rounded=0;orthogonalLoop=1;jettySize=auto;html=1;exitX=0.5;exitY=1;exitDx=0;exitDy=0;entryX=0.25;entryY=1;entryDx=0;entryDy=0;fontSize=13;" edge="1" parent="WIyWlLk6GJQsqaUBKTNV-1" source="9sKHqzHj7tndozo6LKp4-0" target="9sKHqzHj7tndozo6LKp4-2">
          <mxGeometry relative="1" as="geometry">
            <Array as="points">
              <mxPoint x="430" y="350" />
              <mxPoint x="45" y="350" />
            </Array>
          </mxGeometry>
        </mxCell>
        <mxCell id="9sKHqzHj7tndozo6LKp4-31" style="edgeStyle=orthogonalEdgeStyle;curved=1;rounded=0;orthogonalLoop=1;jettySize=auto;html=1;exitX=1;exitY=1;exitDx=0;exitDy=0;entryX=0.75;entryY=1;entryDx=0;entryDy=0;fontSize=13;" edge="1" parent="WIyWlLk6GJQsqaUBKTNV-1" source="9sKHqzHj7tndozo6LKp4-0" target="9sKHqzHj7tndozo6LKp4-3">
          <mxGeometry relative="1" as="geometry">
            <Array as="points">
              <mxPoint x="530" y="222" />
              <mxPoint x="530" y="240" />
              <mxPoint x="683" y="240" />
            </Array>
          </mxGeometry>
        </mxCell>
        <mxCell id="9sKHqzHj7tndozo6LKp4-0" value="&lt;font style=&quot;font-size: 17px&quot;&gt;Quản lý thuê băng đĩa&lt;/font&gt;" style="ellipse;whiteSpace=wrap;html=1;fillColor=#fff2cc;strokeColor=#d6b656;" vertex="1" parent="WIyWlLk6GJQsqaUBKTNV-1">
          <mxGeometry x="370" y="120" width="120" height="120" as="geometry" />
        </mxCell>
        <mxCell id="9sKHqzHj7tndozo6LKp4-1" value="&lt;font style=&quot;font-size: 13px&quot;&gt;Sơ đồ mức ngữ cảnh&lt;/font&gt;" style="shape=note;whiteSpace=wrap;html=1;backgroundOutline=1;darkOpacity=0.05;fontSize=17;fillColor=#f8cecc;strokeColor=#b85450;size=15;" vertex="1" parent="WIyWlLk6GJQsqaUBKTNV-1">
          <mxGeometry x="250" y="10" width="170" height="30" as="geometry" />
        </mxCell>
        <mxCell id="9sKHqzHj7tndozo6LKp4-16" style="edgeStyle=orthogonalEdgeStyle;curved=1;rounded=0;orthogonalLoop=1;jettySize=auto;html=1;exitX=1;exitY=0.5;exitDx=0;exitDy=0;entryX=0;entryY=0.5;entryDx=0;entryDy=0;fontSize=13;" edge="1" parent="WIyWlLk6GJQsqaUBKTNV-1" source="9sKHqzHj7tndozo6LKp4-2" target="9sKHqzHj7tndozo6LKp4-0">
          <mxGeometry relative="1" as="geometry" />
        </mxCell>
        <mxCell id="9sKHqzHj7tndozo6LKp4-20" style="edgeStyle=orthogonalEdgeStyle;curved=1;rounded=0;orthogonalLoop=1;jettySize=auto;html=1;exitX=0.5;exitY=1;exitDx=0;exitDy=0;entryX=0.5;entryY=1;entryDx=0;entryDy=0;fontSize=13;" edge="1" parent="WIyWlLk6GJQsqaUBKTNV-1" source="9sKHqzHj7tndozo6LKp4-2" target="9sKHqzHj7tndozo6LKp4-0">
          <mxGeometry relative="1" as="geometry" />
        </mxCell>
        <mxCell id="9sKHqzHj7tndozo6LKp4-22" style="edgeStyle=orthogonalEdgeStyle;curved=1;rounded=0;orthogonalLoop=1;jettySize=auto;html=1;exitX=0.25;exitY=1;exitDx=0;exitDy=0;entryX=0.6;entryY=1.033;entryDx=0;entryDy=0;entryPerimeter=0;fontSize=13;" edge="1" parent="WIyWlLk6GJQsqaUBKTNV-1" source="9sKHqzHj7tndozo6LKp4-2" target="9sKHqzHj7tndozo6LKp4-0">
          <mxGeometry relative="1" as="geometry">
            <Array as="points">
              <mxPoint x="45" y="300" />
              <mxPoint x="442" y="300" />
            </Array>
          </mxGeometry>
        </mxCell>
        <mxCell id="9sKHqzHj7tndozo6LKp4-2" value="Khách hàng" style="rounded=0;whiteSpace=wrap;html=1;fontSize=13;fillColor=#fff2cc;strokeColor=#d6b656;" vertex="1" parent="WIyWlLk6GJQsqaUBKTNV-1">
          <mxGeometry x="20" y="155" width="100" height="45" as="geometry" />
        </mxCell>
        <mxCell id="9sKHqzHj7tndozo6LKp4-28" style="edgeStyle=orthogonalEdgeStyle;curved=1;rounded=0;orthogonalLoop=1;jettySize=auto;html=1;exitX=0.75;exitY=0;exitDx=0;exitDy=0;fontSize=13;" edge="1" parent="WIyWlLk6GJQsqaUBKTNV-1" source="9sKHqzHj7tndozo6LKp4-3" target="9sKHqzHj7tndozo6LKp4-0">
          <mxGeometry relative="1" as="geometry">
            <mxPoint x="490" y="135" as="targetPoint" />
          </mxGeometry>
        </mxCell>
        <mxCell id="9sKHqzHj7tndozo6LKp4-3" value="Quản lý cửa hàng" style="rounded=0;whiteSpace=wrap;html=1;fontSize=13;fillColor=#fff2cc;strokeColor=#d6b656;" vertex="1" parent="WIyWlLk6GJQsqaUBKTNV-1">
          <mxGeometry x="570" y="155" width="150" height="50" as="geometry" />
        </mxCell>
        <mxCell id="9sKHqzHj7tndozo6LKp4-15" value="Thông tin khuyến mãi" style="text;html=1;resizable=0;autosize=1;align=center;verticalAlign=middle;points=[];fillColor=none;strokeColor=none;rounded=0;fontSize=13;" vertex="1" parent="WIyWlLk6GJQsqaUBKTNV-1">
          <mxGeometry x="190" y="80" width="140" height="20" as="geometry" />
        </mxCell>
        <mxCell id="9sKHqzHj7tndozo6LKp4-17" value="Hoá đơn thanh toán, băng đĩa thuê" style="text;html=1;resizable=0;autosize=1;align=center;verticalAlign=middle;points=[];fillColor=none;strokeColor=none;rounded=0;fontSize=13;" vertex="1" parent="WIyWlLk6GJQsqaUBKTNV-1">
          <mxGeometry x="150" y="155" width="220" height="20" as="geometry" />
        </mxCell>
        <mxCell id="9sKHqzHj7tndozo6LKp4-19" value="Hoá đơn" style="text;html=1;resizable=0;autosize=1;align=center;verticalAlign=middle;points=[];fillColor=none;strokeColor=none;rounded=0;fontSize=13;" vertex="1" parent="WIyWlLk6GJQsqaUBKTNV-1">
          <mxGeometry x="250" y="200" width="70" height="20" as="geometry" />
        </mxCell>
        <mxCell id="9sKHqzHj7tndozo6LKp4-21" value="Yêu cầu thuê" style="text;html=1;resizable=0;autosize=1;align=center;verticalAlign=middle;points=[];fillColor=none;strokeColor=none;rounded=0;fontSize=13;" vertex="1" parent="WIyWlLk6GJQsqaUBKTNV-1">
          <mxGeometry x="215" y="240" width="90" height="20" as="geometry" />
        </mxCell>
        <mxCell id="9sKHqzHj7tndozo6LKp4-23" value="Thông tin khách hàng" style="text;html=1;resizable=0;autosize=1;align=center;verticalAlign=middle;points=[];fillColor=none;strokeColor=none;rounded=0;fontSize=13;" vertex="1" parent="WIyWlLk6GJQsqaUBKTNV-1">
          <mxGeometry x="180" y="280" width="140" height="20" as="geometry" />
        </mxCell>
        <mxCell id="9sKHqzHj7tndozo6LKp4-26" value="Thẻ khách hàng" style="text;html=1;resizable=0;autosize=1;align=center;verticalAlign=middle;points=[];fillColor=none;strokeColor=none;rounded=0;fontSize=13;" vertex="1" parent="WIyWlLk6GJQsqaUBKTNV-1">
          <mxGeometry x="180" y="320" width="110" height="20" as="geometry" />
        </mxCell>
        <mxCell id="9sKHqzHj7tndozo6LKp4-29" value="Yêu cầu thông tin" style="text;html=1;resizable=0;autosize=1;align=center;verticalAlign=middle;points=[];fillColor=none;strokeColor=none;rounded=0;fontSize=13;" vertex="1" parent="WIyWlLk6GJQsqaUBKTNV-1">
          <mxGeometry x="540" y="110" width="120" height="20" as="geometry" />
        </mxCell>
        <mxCell id="9sKHqzHj7tndozo6LKp4-32" value="Thông tin báo cáo" style="text;html=1;resizable=0;autosize=1;align=center;verticalAlign=middle;points=[];fillColor=none;strokeColor=none;rounded=0;fontSize=13;" vertex="1" parent="WIyWlLk6GJQsqaUBKTNV-1">
          <mxGeometry x="540" y="250" width="120" height="20" as="geometry" />
        </mxCell>
      </root>
    </mxGraphModel>
  </diagram>
</mxfile>
